<svg xmlns="http://www.w3.org/2000/svg" viewBox="0 0 512 640" role="img" aria-label="Stephen Hawking placeholder portrait">
  <defs>
    <linearGradient id="bg" x2="1" y2="1"><stop stop-color="#302c48"/><stop offset="1" stop-color="#0c0d14"/></linearGradient>
    <radialGradient id="skin"><stop stop-color="#d7b7aa"/><stop offset="1" stop-color="#a77f76"/></radialGradient>
  </defs>
  <rect width="512" height="640" rx="80" fill="url(#bg)"/>
  <path d="M83 640c20-126 79-191 173-191 102 0 162 67 179 191" fill="#242a32"/>
  <ellipse cx="263" cy="279" rx="118" ry="157" fill="url(#skin)" transform="rotate(7 263 279)"/>
  <path d="M145 219c-2-119 56-174 133-164 69 8 106 59 96 157-32-52-69-78-119-74-51 4-84 31-110 81z" fill="#c9b7a6"/>
  <g fill="none" stroke="#363238" stroke-width="7">
    <ellipse cx="219" cy="278" rx="47" ry="34" transform="rotate(5 219 278)"/>
    <ellipse cx="315" cy="289" rx="47" ry="34" transform="rotate(8 315 289)"/>
    <path d="M263 284l8 1"/>
  </g>
  <circle cx="220" cy="282" r="7" fill="#758d7f"/><circle cx="314" cy="292" r="7" fill="#758d7f"/>
  <path d="M266 299l-12 65 32 2" fill="none" stroke="#795b55" stroke-width="7" stroke-linecap="round"/>
  <path d="M214 399c29 7 57 6 85-4" fill="none" stroke="#774c4d" stroke-width="8" stroke-linecap="round"/>
  <path d="M160 501c69 31 137 31 205 0" fill="none" stroke="#59616f" stroke-width="16"/>
</svg>
